PathFileType	4	(X/Y/Z)	output.trc
DataRate	CameraRate	NumFrames	NumMarkers	Units	OrigDataRate	OrigDataStartFrame	OrigNumFrames
100	100	9	23	m	100	2837	5673
Frame#	Time	C7			T8			EL			EM			US			RS			AA			Fore_Clus_1			Fore_Clus_2			Fore_Clus_3			Fore_Clus_4			Hum_Clus_1			Hum_Clus_2			Hum_Clus_3			Hum_Clus_4			Thor_Clus_1			Thor_Clus_2			Thor_Clus_3			Thor_Clus_4			IJ			PX			GH			Thor_Clus_5		
		X1	Y1	Z1	X2	Y2	Z2	X3	Y3	Z3	X4	Y4	Z4	X5	Y5	Z5	X6	Y6	Z6	X7	Y7	Z7	X8	Y8	Z8	X9	Y9	Z9	X10	Y10	Z10	X11	Y11	Z11	X12	Y12	Z12	X13	Y13	Z13	X14	Y14	Z14	X15	Y15	Z15	X16	Y16	Z16	X17	Y17	Z17	X18	Y18	Z18	X19	Y19	Z19	X20	Y20	Z20	X21	Y21	Z21	X22	Y22	Z22	X23	Y23	Z23
2836	28.360000	-0.082818	1.523461	-0.137467	-0.106596	1.295188	-0.210774	-0.313214	1.160584	0.033494	-0.278985	1.134509	-0.030836	-0.155279	1.153916	0.230856	-0.152033	1.208351	0.216989	-0.239269	1.452298	-0.010615	-0.210496	1.157524	0.211999	-0.176833	1.168281	0.253669	-0.176457	1.195151	0.246368	-0.212185	1.201684	0.201187	-0.306775	1.265020	0.064435	-0.331913	1.277942	0.011116	-0.325711	1.341269	0.011309	-0.292738	1.337917	0.059950	0.038769	1.413198	-0.000197	-0.003454	1.358197	0.048014	-0.001013	1.408452	0.019722	0.053959	1.365126	0.019479	-0.016531	1.433793	-0.039241	0.008489	1.221337	0.017598	-0.211000	1.428359	-0.014892	-0.010337	1.379407	0.039207
2837	28.370000	-0.082869	1.523362	-0.137526	-0.106685	1.295059	-0.210727	-0.313182	1.160497	0.033474	-0.278953	1.134441	-0.030863	-0.155286	1.153870	0.230835	-0.152079	1.208314	0.216995	-0.239333	1.452285	-0.010642	-0.210496	1.157411	0.211966	-0.176875	1.168183	0.253688	-0.176484	1.195047	0.246361	-0.211228	1.200840	0.200596	-0.306776	1.264964	0.064405	-0.331923	1.277893	0.011108	-0.325747	1.341229	0.011302	-0.292774	1.337879	0.059947	0.038704	1.413152	-0.000208	-0.003444	1.358175	0.048038	-0.001114	1.408451	0.019729	0.053859	1.365122	0.019530	-0.016598	1.433728	-0.039257	0.008386	1.221295	0.017681	-0.211079	1.428315	-0.014904	-0.010374	1.379392	0.039243
2838	28.380000	-0.082926	1.523272	-0.137576	-0.106770	1.294943	-0.210688	-0.313147	1.160414	0.033460	-0.278921	1.134379	-0.030888	-0.155292	1.153825	0.230806	-0.152137	1.208283	0.217010	-0.239404	1.452265	-0.010671	-0.210501	1.157303	0.211944	-0.176936	1.168052	0.253774	-0.176508	1.194940	0.246350	-0.211388	1.200854	0.200670	-0.306780	1.264912	0.064390	-0.331933	1.277854	0.011098	-0.325792	1.341183	0.011321	-0.292802	1.337839	0.059944	0.038630	1.413151	-0.000202	-0.003419	1.358169	0.048105	-0.001193	1.408442	0.019740	0.053775	1.365094	0.019531	-0.016671	1.433667	-0.039270	0.008282	1.221253	0.017753	-0.211164	1.428279	-0.014915	-0.010472	1.379364	0.039223
2839	28.390000	-0.082989	1.523190	-0.137617	-0.106852	1.294840	-0.210657	-0.313109	1.160338	0.033448	-0.278891	1.134324	-0.030913	-0.155298	1.153783	0.230768	-0.152206	1.208259	0.217030	-0.239482	1.452241	-0.010699	-0.210494	1.157207	0.211910	-0.176940	1.167966	0.253743	-0.176526	1.194834	0.246332	-0.211403	1.200767	0.200650	-0.306782	1.264856	0.064377	-0.331954	1.277814	0.011097	-0.325840	1.341140	0.011342	-0.292836	1.337791	0.059967	0.038542	1.413121	-0.000199	-0.003537	1.358164	0.048091	-0.001275	1.408423	0.019739	0.053693	1.365080	0.019536	-0.016749	1.433611	-0.039278	0.008178	1.221212	0.017815	-0.211254	1.428252	-0.014926	-0.010557	1.379340	0.039227
2840	28.400000	-0.083061	1.523116	-0.137652	-0.106934	1.294748	-0.210632	-0.313073	1.160268	0.033436	-0.278866	1.134278	-0.030940	-0.155304	1.153744	0.230722	-0.152285	1.208242	0.217053	-0.239569	1.452212	-0.010727	-0.210500	1.157118	0.211882	-0.176945	1.167867	0.253720	-0.176546	1.194760	0.246301	-0.211369	1.200646	0.200594	-0.306785	1.264789	0.064366	-0.331981	1.277743	0.011117	-0.325892	1.341083	0.011381	-0.292875	1.337722	0.059982	0.038439	1.413082	-0.000206	-0.003623	1.358132	0.048112	-0.001358	1.408397	0.019750	0.053612	1.365041	0.019552	-0.016835	1.433559	-0.039284	0.008074	1.221174	0.017868	-0.211350	1.428232	-0.014936	-0.010657	1.379325	0.039228
2841	28.410000	-0.083131	1.523060	-0.137677	-0.107013	1.294680	-0.210617	-0.313042	1.160204	0.033423	-0.278847	1.134237	-0.030969	-0.155309	1.153710	0.230663	-0.152374	1.208233	0.217075	-0.239658	1.452191	-0.010755	-0.210501	1.157047	0.211842	-0.176969	1.167791	0.253692	-0.176571	1.194682	0.246291	-0.212438	1.201380	0.201196	-0.306803	1.264718	0.064368	-0.332016	1.277664	0.011144	-0.325959	1.341013	0.011415	-0.292917	1.337658	0.059992	0.038346	1.413074	-0.000174	-0.003933	1.358117	0.048019	-0.001434	1.408373	0.019746	0.053515	1.365025	0.019562	-0.016922	1.433516	-0.039285	0.007965	1.221140	0.017909	-0.211451	1.428219	-0.014947	-0.010737	1.379296	0.039240
2842	28.420000	-0.083209	1.523011	-0.137697	-0.107095	1.294622	-0.210605	-0.313019	1.160143	0.033406	-0.278835	1.134201	-0.031002	-0.155315	1.153678	0.230596	-0.152470	1.208227	0.217094	-0.239753	1.452170	-0.010781	-0.210508	1.156977	0.211825	-0.176987	1.167719	0.253661	-0.176591	1.194627	0.246256	-0.212358	1.201237	0.201111	-0.306827	1.264641	0.064378	-0.332066	1.277581	0.011154	-0.326042	1.340919	0.011429	-0.292960	1.337574	0.060002	0.038277	1.413009	-0.000181	-0.004019	1.358097	0.048037	-0.001520	1.408354	0.019765	0.053439	1.365005	0.019581	-0.017015	1.433479	-0.039284	0.007854	1.221110	0.017945	-0.211557	1.428208	-0.014959	-0.010843	1.379262	0.039242
2843	28.430000	-0.083284	1.522978	-0.137710	-0.107178	1.294583	-0.210599	-0.313005	1.160083	0.033385	-0.278833	1.134164	-0.031039	-0.155322	1.153647	0.230520	-0.152570	1.208222	0.217106	-0.239849	1.452159	-0.010807	-0.210522	1.156909	0.211801	-0.176995	1.167650	0.253636	-0.176619	1.194567	0.246238	-0.212459	1.201208	0.201123	-0.306862	1.264555	0.064375	-0.332122	1.277475	0.011153	-0.326125	1.340816	0.011426	-0.293038	1.337479	0.059988	0.038036	1.413280	-0.000004	-0.004156	1.358017	0.048128	-0.001610	1.408329	0.019784	0.053348	1.364979	0.019604	-0.017109	1.433450	-0.039280	0.007738	1.221085	0.017972	-0.211668	1.428196	-0.014975	-0.010952	1.379227	0.039264
2844	28.440000	-0.083358	1.522956	-0.137717	-0.107262	1.294559	-0.210597	-0.313002	1.160017	0.033358	-0.278841	1.134121	-0.031081	-0.155330	1.153611	0.230438	-0.152671	1.208212	0.217109	-0.239946	1.452158	-0.010831	-0.210539	1.156834	0.211791	-0.177002	1.167593	0.253609	-0.176649	1.194501	0.246218	-0.212383	1.201103	0.201079	-0.306918	1.264464	0.064354	-0.332208	1.277357	0.011147	-0.326235	1.340708	0.011397	-0.293123	1.337369	0.059956	0.037838	1.413476	0.000139	-0.004285	1.357985	0.048227	-0.001716	1.408304	0.019796	0.053237	1.364932	0.019632	-0.017204	1.433428	-0.039274	0.007617	1.221063	0.017993	-0.211784	1.428176	-0.014994	-0.011060	1.379206	0.039270
